/* XPM */
static char * close_active_xpm[] = {
"16 16 107 2",
"  	c None",
". 	c #7D7D7D",
"+ 	c #7B7A7B",
"@ 	c #787978",
"# 	c #777776",
"$ 	c #757575",
"% 	c #737373",
"& 	c #717171",
"* 	c #6F6E6F",
"= 	c #6D6C6D",
"- 	c #6A6B6A",
"; 	c #686869",
"> 	c #666667",
", 	c #656565",
"' 	c #636263",
") 	c #7B7B7B",
"! 	c #797979",
"~ 	c #777777",
"{ 	c #757675",
"] 	c #737374",
"^ 	c #6F6F6F",
"/ 	c #6D6D6D",
"( 	c #6B6A6A",
"_ 	c #696869",
": 	c #676766",
"< 	c #636363",
"[ 	c #616160",
"} 	c #5F5F5F",
"| 	c #787979",
"1 	c #767776",
"2 	c #767575",
"3 	c #6F6F6E",
"4 	c #6C6D6D",
"5 	c #6B6B6B",
"6 	c #686968",
"7 	c #666767",
"8 	c #616161",
"9 	c #5D5C5C",
"0 	c #767676",
"a 	c #FFFFFF",
"b 	c #696969",
"c 	c #5E5F5F",
"d 	c #5C5D5D",
"e 	c #5B5B5B",
"f 	c #767576",
"g 	c #696968",
"h 	c #666666",
"i 	c #5C5C5D",
"j 	c #5A5A5A",
"k 	c #595958",
"l 	c #757676",
"m 	c #585858",
"n 	c #575757",
"o 	c #6C6D6C",
"p 	c #6B6B6A",
"q 	c #5A5B5B",
"r 	c #595858",
"s 	c #555555",
"t 	c #6A6B6B",
"u 	c #676667",
"v 	c #595859",
"w 	c #535252",
"x 	c #6D6C6C",
"y 	c #6B6A6B",
"z 	c #686868",
"A 	c #5A5A5B",
"B 	c #535353",
"C 	c #515151",
"D 	c #686969",
"E 	c #676666",
"F 	c #515150",
"G 	c #4F4F4F",
"H 	c #5D5C5D",
"I 	c #505151",
"J 	c #4C4D4C",
"K 	c #4E4E4F",
"L 	c #4C4C4D",
"M 	c #4A4B4B",
"N 	c #636362",
"O 	c #525353",
"P 	c #484948",
"Q 	c #616061",
"R 	c #585959",
"S 	c #555455",
"T 	c #535253",
"U 	c #515051",
"V 	c #4E4F4F",
"W 	c #4C4C4C",
"X 	c #4A4A4B",
"Y 	c #484848",
"Z 	c #474747",
"` 	c #5F5E5F",
" .	c #5B5B5A",
"..	c #545555",
"+.	c #4E4F4E",
"@.	c #4C4D4D",
"#.	c #4A4B4A",
"$.	c #464747",
"%.	c #454545",
"&.	c #5D5D5D",
"*.	c #5A5B5A",
"=.	c #585859",
"-.	c #505050",
";.	c #4D4C4D",
">.	c #4A4A4A",
",.	c #474647",
"'.	c #454445",
"  . + @ # $ % & * = - ; > , '   ",
". ) ! ~ { ] & ^ / ( _ : , < [ } ",
") | 1 2 % & 3 4 5 6 7 , < 8 } 9 ",
"! 0 $ a a ^ / 5 b > , a a c d e ",
"# f ] a a a - g h , a a a i j k ",
"l % & 3 a a a > , a a a d e m n ",
"% & ^ o p a a a a a a 9 q r n s ",
"& 3 / t _ u a a a a 9 q v n s w ",
"^ x y z u , a a a a A m n s B C ",
"/ t D E , a a a a a a n s B F G ",
"5 g u , a a a H j a a a B I G J ",
"z h , a a a H j r n a a a K L M ",
"E , N a a i A r n s O a a J M P ",
", < Q } i A R n S T U V W X Y Z ",
"< 8 ` i  .r n ..O C +.@.#.P $.%.",
"  } &.*.=.n ..B -.+.;.>.Y ,.'.  "};
