/* XPM */
static char * close_inactive_xpm[] = {
"16 16 79 1",
" 	c None",
".	c #FEFEFF",
"+	c #FDFDFD",
"@	c #FDFEFD",
"#	c #FDFDFC",
"$	c #FCFCFC",
"%	c #FBFBFC",
"&	c #FBFBFB",
"*	c #FAFAFA",
"=	c #F9FAF9",
"-	c #FAF9F9",
";	c #F8F8F9",
">	c #F7F7F7",
",	c #FEFEFD",
"'	c #FDFCFC",
")	c #FCFDFC",
"!	c #F9FAFA",
"~	c #F9F9F9",
"{	c #F9F8F8",
"]	c #F8F8F8",
"^	c #F8F7F8",
"/	c #F7F6F7",
"(	c #F6F6F5",
"_	c #FDFEFE",
":	c #FDFCFD",
"<	c #FBFCFC",
"[	c #FBFAFB",
"}	c #FAF9FA",
"|	c #F8F8F7",
"1	c #F6F6F7",
"2	c #F6F6F6",
"3	c #F5F5F5",
"4	c #FCFCFD",
"5	c #808080",
"6	c #F9F9FA",
"7	c #F8F9F9",
"8	c #F7F7F8",
"9	c #F5F5F4",
"0	c #F9F9F8",
"a	c #F8F9F8",
"b	c #F7F8F7",
"c	c #F5F6F5",
"d	c #F4F4F4",
"e	c #FBFAFA",
"f	c #F8F7F7",
"g	c #F5F4F5",
"h	c #FCFCFB",
"i	c #F6F5F5",
"j	c #F3F4F4",
"k	c #F3F3F3",
"l	c #FAFBFA",
"m	c #F5F5F6",
"n	c #F2F3F2",
"o	c #FAFAFB",
"p	c #F5F4F4",
"q	c #F4F4F3",
"r	c #F2F2F2",
"s	c #F4F3F4",
"t	c #F2F2F1",
"u	c #F2F1F2",
"v	c #F1F2F1",
"w	c #F1F1F1",
"x	c #F4F4F5",
"y	c #F0F1F0",
"z	c #F0F1F1",
"A	c #F0F0F1",
"B	c #F0EFEF",
"C	c #F3F3F4",
"D	c #EFEFF0",
"E	c #EFEFEF",
"F	c #F6F7F6",
"G	c #F5F6F6",
"H	c #F1F2F2",
"I	c #F1F0F0",
"J	c #F0F0EF",
"K	c #EFEFEE",
"L	c #F0F0F0",
"M	c #EFF0F0",
"N	c #EEEFEF",
" .+@#$%&*=-;;>> ",
".,+')$&&!~{]^>/(",
"_+:$<&[}~;]|>123",
"+:455**67]855239",
"#$<555~0ab555c3d",
"$<&e555{f5553gdd",
"h&e!=555555i3djk",
"&l*~0]5555m33jkn",
"o}=a]^55559pqkrr",
"}-~]^555555skktu",
"=~0>55539555krvw",
"]{b555ixds555wwy",
"7|>5533pqkn55zAB",
"|>123g9CknruzADE",
">FG339jkruHyIJEK",
" 2c9xjkkrwLAMEN "};
