/* XPM */
static char * hide_prelight_xpm[] = {
"16 16 79 1",
" 	c None",
".	c #FFFEFE",
"+	c #FEFEFE",
"@	c #FDFDFD",
"#	c #FDFCFD",
"$	c #FDFCFC",
"%	c #FCFCFC",
"&	c #FBFBFB",
"*	c #FBFAFB",
"=	c #FAFAFA",
"-	c #F9F9FA",
";	c #F9F8F9",
">	c #F8F8F8",
",	c #F7F7F7",
"'	c #FFFFFF",
")	c #FCFCFD",
"!	c #FBFCFC",
"~	c #FAFAFB",
"{	c #F9F9F9",
"]	c #F8F7F8",
"^	c #F6F6F6",
"/	c #FEFDFD",
"(	c #FCFDFD",
"_	c #F9FAF9",
":	c #F6F7F7",
"<	c #F6F5F5",
"[	c #FCFCFB",
"}	c #FBFBFC",
"|	c #FAFAF9",
"1	c #F7F6F7",
"2	c #F5F6F5",
"3	c #F5F4F5",
"4	c #FDFDFC",
"5	c #FCFBFC",
"6	c #F9F9F8",
"7	c #F7F8F7",
"8	c #F5F5F5",
"9	c #F5F4F4",
"0	c #FBFBFA",
"a	c #F8F8F9",
"b	c #F7F7F8",
"c	c #F6F6F7",
"d	c #F4F5F4",
"e	c #F4F4F3",
"f	c #FBFAFA",
"g	c #F7F7F6",
"h	c #F6F5F6",
"i	c #F5F5F4",
"j	c #F3F3F3",
"k	c #F8F9F9",
"l	c #F8F8F7",
"m	c #F4F4F4",
"n	c #F2F3F3",
"o	c #F4F5F5",
"p	c #F4F4F5",
"q	c #F4F3F4",
"r	c #F3F3F2",
"s	c #F3F2F2",
"t	c #FAF9F9",
"u	c #F7F8F8",
"v	c #F4F3F3",
"w	c #F2F2F2",
"x	c #F1F2F1",
"y	c #F6F7F6",
"z	c #F3F4F3",
"A	c #F2F1F2",
"B	c #F1F1F1",
"C	c #F8F9F8",
"D	c #808080",
"E	c #F1F1F2",
"F	c #F0F1F0",
"G	c #F1F0F1",
"H	c #F0F0F0",
"I	c #EFEFEF",
"J	c #F2F2F3",
"K	c #EFEFF0",
"L	c #EEEEEE",
"M	c #F1F2F2",
"N	c #EFF0F0",
" .+@#$%&*=-;>>, ",
"'+@)%!&~={{>],^^",
"+/(%!*&=_{>>:,^<",
"@@%[}&=|{>>,1^23",
"4#5}&=-6>7,:^289",
")[}0=_{a]bc^88de",
"%&f={{>>7g^hidej",
"&0=-kal,c^28mmen",
"*=_k>>7:^<opqjrs",
"=t>aul,^^89qvnwx",
"{{;u,y^23omzjwAB",
"{C>,DDDDDDDDsEBF",
";>7gDDDDDDDDEGHH",
">,,^88dmerwxBHHI",
"by^h89mjnJEBHHKL",
" ^<8imjjwMBBNNI "};
