/* XPM */
static char * hide_active_xpm[] = {
"16 16 101 2",
"  	c None",
". 	c #7D7D7D",
"+ 	c #7B7B7B",
"@ 	c #797979",
"# 	c #777777",
"$ 	c #747575",
"% 	c #737373",
"& 	c #717171",
"* 	c #6F6E6F",
"= 	c #6D6C6D",
"- 	c #6B6A6A",
"; 	c #686968",
"> 	c #676666",
", 	c #656565",
"' 	c #636363",
") 	c #7A7A7B",
"! 	c #787878",
"~ 	c #777776",
"{ 	c #757575",
"] 	c #717271",
"^ 	c #6F6F6F",
"/ 	c #6D6D6D",
"( 	c #6B6B6B",
"_ 	c #686869",
": 	c #676767",
"< 	c #616161",
"[ 	c #5E5F5F",
"} 	c #7A7B7B",
"| 	c #757574",
"1 	c #747373",
"2 	c #686868",
"3 	c #666666",
"4 	c #636263",
"5 	c #616061",
"6 	c #5F5F5E",
"7 	c #5C5D5C",
"8 	c #797878",
"9 	c #737374",
"0 	c #6B6B6A",
"a 	c #696969",
"b 	c #5D5D5D",
"c 	c #5A5A5B",
"d 	c #747474",
"e 	c #6C6D6D",
"f 	c #5F5F5F",
"g 	c #5C5D5D",
"h 	c #5B5A5A",
"i 	c #595959",
"j 	c #696869",
"k 	c #666566",
"l 	c #5B5A5B",
"m 	c #575757",
"n 	c #686969",
"o 	c #656566",
"p 	c #626363",
"q 	c #5A5A5A",
"r 	c #555555",
"s 	c #666767",
"t 	c #5D5D5C",
"u 	c #535253",
"v 	c #5F5E5F",
"w 	c #5A5B5A",
"x 	c #595A59",
"y 	c #535353",
"z 	c #515150",
"A 	c #6A6A6B",
"B 	c #5D5C5D",
"C 	c #5A5959",
"D 	c #545555",
"E 	c #505150",
"F 	c #4F4F4E",
"G 	c #6A6B6B",
"H 	c #525253",
"I 	c #515051",
"J 	c #4D4C4C",
"K 	c #666766",
"L 	c #FFFFFF",
"M 	c #505151",
"N 	c #4E4E4E",
"O 	c #4B4B4B",
"P 	c #676766",
"Q 	c #4E4F4F",
"R 	c #4C4C4D",
"S 	c #494949",
"T 	c #5F5E5E",
"U 	c #505050",
"V 	c #4F4F4F",
"W 	c #4C4C4C",
"X 	c #474747",
"Y 	c #5B5B5B",
"Z 	c #525353",
"` 	c #515151",
" .	c #4D4D4C",
"..	c #464747",
"+.	c #444545",
"@.	c #5E5E5F",
"#.	c #5C5C5D",
"$.	c #59595A",
"%.	c #555554",
"&.	c #474647",
"*.	c #454544",
"  . + @ # $ % & * = - ; > , '   ",
". ) ! ~ { % ] ^ / ( _ : , ' < [ ",
"} @ ~ | 1 & ^ / ( 2 3 , 4 5 6 7 ",
"8 # $ 9 & * / 0 a 3 , ' < 6 b c ",
"# d % & * e ( 2 3 , ' < f g h i ",
"$ 1 & ^ e - j 3 k ' < f 7 l i m ",
"% & ^ / ( n : o p 5 f b q i m r ",
"& ^ / ( j s , ' < f t q i m r u ",
"^ / ( j 3 , ' < v t w x m r y z ",
"= A j 3 o ' < f B w C m D u E F ",
"G n > , ' < 6 B c i m r H I F J ",
"; K , ' L L L L L L L L M N J O ",
"P , ' 5 L L L L L L L L Q R O S ",
", ' < T g w i m r y U V W O S X ",
"' < [ B Y i m r Z ` Q  .O S ..+.",
"  @.#.c $.m %.u ` N W O S &.*.  "};
