/* XPM */
static char * maximize_active_xpm[] = {
"16 16 90 1",
" 	c None",
".	c #7D7D7D",
"+	c #7B7B7B",
"@	c #787978",
"#	c #777777",
"$	c #757576",
"%	c #737373",
"&	c #717171",
"*	c #6F6F6F",
"=	c #6D6D6D",
"-	c #6A6A6B",
";	c #69696A",
">	c #676767",
",	c #656565",
"'	c #636363",
")	c #797979",
"!	c #777877",
"~	c #757575",
"{	c #747374",
"]	c #6C6D6D",
"^	c #6B6B6B",
"/	c #696969",
"(	c #676768",
"_	c #616160",
":	c #5F5F5E",
"<	c #787979",
"[	c #737374",
"}	c #6E6F6F",
"|	c #FFFFFF",
"1	c #5F5E5E",
"2	c #5D5D5C",
"3	c #787877",
"4	c #757675",
"5	c #747373",
"6	c #717272",
"7	c #6F6F6E",
"8	c #6A6969",
"9	c #5D5C5D",
"0	c #5B5B5B",
"a	c #757676",
"b	c #6A6B6B",
"c	c #595959",
"d	c #767575",
"e	c #5C5C5D",
"f	c #575757",
"g	c #5D5D5D",
"h	c #5C5B5B",
"i	c #555555",
"j	c #656566",
"k	c #5B5C5B",
"l	c #535353",
"m	c #686868",
"n	c #636263",
"o	c #616161",
"p	c #5E5E5F",
"q	c #595A59",
"r	c #535253",
"s	c #505150",
"t	c #6B6B6A",
"u	c #666566",
"v	c #5E5F5F",
"w	c #515050",
"x	c #4E4E4F",
"y	c #6A6A6A",
"z	c #6A696A",
"A	c #5F5E5F",
"B	c #545555",
"C	c #515151",
"D	c #4F4E4E",
"E	c #4E4D4D",
"F	c #676867",
"G	c #525353",
"H	c #505151",
"I	c #4F4F4E",
"J	c #4B4B4B",
"K	c #4E4E4D",
"L	c #4C4B4C",
"M	c #494949",
"N	c #666565",
"O	c #616061",
"P	c #4F4E4F",
"Q	c #4D4D4D",
"R	c #464747",
"S	c #5A5959",
"T	c #4D4E4D",
"U	c #474747",
"V	c #444545",
"W	c #5F5F5F",
"X	c #5C5D5C",
"Y	c #454544",
" .+@#$%&*=-;>,' ",
".+)!~{&*]^/(,'_:",
"+<#~[&}=^/||||12",
")34567=^8>,|||90",
"!a%&*=b/>,||||0c",
"d%&|||||||||e|cf",
"5&|||||||||ghcfi",
"&*||/>j'_||kcfil",
"*=||m,nop||qfirs",
"=t||u'ov9||filwx",
"yz||'_Ag0||BlCDE",
"/F||o:90c||GHIEJ",
">,|||||||||CIKLM",
"N'O|||||||CPQLMR",
"'OAg0SfilHDTJMUV",
" WX0cfBrsDQJMUY "};
