/* XPM */
static char * maximize_toggled_active_xpm[] = {
"16 16 90 1",
" 	c None",
".	c #7C7C7C",
"+	c #7A7A7B",
"@	c #787878",
"#	c #767676",
"$	c #747473",
"%	c #727272",
"&	c #707070",
"*	c #6F6F6E",
"=	c #6C6C6C",
"-	c #6A6A6A",
";	c #686868",
">	c #666666",
",	c #656565",
"'	c #626262",
")	c #7A7A7A",
"!	c #747474",
"~	c #717271",
"{	c #70706F",
"]	c #6E6F6F",
"^	c #646564",
"/	c #626263",
"(	c #606060",
"_	c #5E5E5E",
":	c #737474",
"<	c #717272",
"[	c #6F6F6F",
"}	c #FFFFFF",
"|	c #606160",
"1	c #5C5C5C",
"2	c #6F706F",
"3	c #5B5C5C",
"4	c #5A5A5A",
"5	c #737473",
"6	c #727171",
"7	c #706F70",
"8	c #6E6E6E",
"9	c #666565",
"0	c #595958",
"a	c #747374",
"b	c #6E6E6F",
"c	c #656465",
"d	c #636263",
"e	c #606061",
"f	c #585859",
"g	c #565656",
"h	c #545454",
"i	c #676868",
"j	c #545455",
"k	c #535252",
"l	c #595859",
"m	c #535253",
"n	c #505050",
"o	c #656464",
"p	c #4E4E4E",
"q	c #646565",
"r	c #4E4D4E",
"s	c #4C4C4C",
"t	c #686867",
"u	c #666566",
"v	c #525252",
"w	c #4D4C4C",
"x	c #4A4A4A",
"y	c #656566",
"z	c #646465",
"A	c #575656",
"B	c #555454",
"C	c #4C4D4D",
"D	c #4A4B4A",
"E	c #484848",
"F	c #595858",
"G	c #575756",
"H	c #555554",
"I	c #464646",
"J	c #626362",
"K	c #5E5F5E",
"L	c #575657",
"M	c #545554",
"N	c #4D4E4E",
"O	c #4C4C4D",
"P	c #4B4A4B",
"Q	c #494848",
"R	c #444444",
"S	c #5C5B5C",
"T	c #5A595A",
"U	c #565757",
"V	c #525352",
"W	c #4E4E4D",
"X	c #4B4B4A",
"Y	c #444544",
" .+@#$%&*=-;>,' ",
".)@#!~{]=-;>^/(_",
")@#:<[}}}}}}}|_1",
"@#!<2}}}}}}}}}34",
"#5678}};9^'(}}40",
"a<7b=}}>cde_}}fg",
"%{]=-}}c/(_1}}gh",
"[b=-i}}'(_14}}jk",
"8=-;>}}|_14l}}mn",
"=-i>o}}}}}}}}}np",
"-;}q}}}}}}}}}nrs",
"tu}}}}14lghvnpwx",
"yz}}}14lABvnpCDE",
"z'}}}}FGHvnpwDEI",
"J(K14FLMvnNOPQIR",
" _STfUhVnWwXQIY "};
