/* XPM */
static char * maximize_inactive_xpm[] = {
"16 16 15 1",
" 	c None",
".	c #F1F1F2",
"+	c #EDEEED",
"@	c #EDEDED",
"#	c #EDEDEE",
"$	c #EEEDEE",
"%	c #EEEDED",
"&	c #EEEEED",
"*	c #EDEEEE",
"=	c #EEEEEE",
"-	c #F0EFEF",
";	c #F0F0EF",
">	c #808080",
",	c #EFF0F0",
"'	c #EFF0EF",
" .+@#$$%@&*$=@- ",
".@*&#+&$@+@$&@@;",
"%*&#$@#*=%>>>>=%",
"+%@&+&$&**@>>>$%",
"+*+@+=*&==>>>>%=",
"=$=>>>>>>>>>&>=%",
"*=>>>>>>>>>&#+&#",
"$@>>%=@&#>>$&%+*",
"=*>>==%#%>>%#$*%",
"=#>>%%+@&>>=@%#=",
"+=>>$=+*&>>=#&&*",
"#$>>$#*&$>>%$#$=",
"+&>>>>>>>>>%#*#*",
"&@$>>>>>>>#@$$$#",
",@#&=#+&#%=+*%&=",
" '@@$&$=@%@=&*= "};
