/* XPM */
static char * maximize_toggled_prelight_xpm[] = {
"16 16 80 1",
" 	c None",
".	c #FFFFFF",
"+	c #FEFEFE",
"@	c #FDFDFE",
"#	c #FCFDFD",
"$	c #FCFCFC",
"%	c #FCFCFB",
"&	c #FBFBFB",
"*	c #FAFAFA",
"=	c #F9F9F9",
"-	c #F8F8F8",
";	c #F7F8F7",
">	c #F7F7F7",
",	c #FDFEFE",
"'	c #FDFDFD",
")	c #FCFBFC",
"!	c #FBFAFA",
"~	c #F7F7F8",
"{	c #F6F6F6",
"]	c #FDFDFC",
"^	c #FBFCFB",
"/	c #808080",
"(	c #F6F7F6",
"_	c #F5F6F5",
":	c #FEFDFD",
"<	c #F6F5F5",
"[	c #F4F5F5",
"}	c #F9F9F8",
"|	c #F7F6F7",
"1	c #F5F5F5",
"2	c #F4F4F5",
"3	c #FDFCFC",
"4	c #FCFBFB",
"5	c #F8F9F8",
"6	c #F8F8F7",
"7	c #F7F7F6",
"8	c #F6F6F5",
"9	c #F4F4F4",
"0	c #F4F3F3",
"a	c #FBFCFC",
"b	c #F9F9FA",
"c	c #F3F3F3",
"d	c #FAFBFA",
"e	c #F9FAF9",
"f	c #F5F6F6",
"g	c #F3F2F3",
"h	c #FAFBFB",
"i	c #F7F6F6",
"j	c #F5F5F4",
"k	c #F2F2F2",
"l	c #FAF9FA",
"m	c #F9F8F9",
"n	c #F8F7F8",
"o	c #F7F8F8",
"p	c #F1F1F1",
"q	c #F1F0F1",
"r	c #F4F3F4",
"s	c #F2F3F2",
"t	c #F1F1F2",
"u	c #F0F1F1",
"v	c #F0F0F0",
"w	c #F5F4F5",
"x	c #F2F3F3",
"y	c #F2F2F1",
"z	c #F0F1F0",
"A	c #F0EFF0",
"B	c #F2F1F1",
"C	c #EFF0F0",
"D	c #EFEFEF",
"E	c #F6F6F7",
"F	c #F5F4F4",
"G	c #F3F3F2",
"H	c #F0F0F1",
"I	c #EFF0EF",
"J	c #EFEEEE",
"K	c #F5F5F6",
"L	c #F4F5F4",
"M	c #F2F1F2",
"N	c #F1F2F1",
"O	c #EEEEEF",
" .+@#$%&**==-;> ",
".+,'$)&!*==-~>{{",
"+']$^&///////({_",
":'$&&/////////<[",
"#$^&*//}->>|//12",
"34&**//56>78//90",
"a&**b//->(_1//9c",
"&d*e=//>7f11//cg",
"h*==5//if_j2//gk",
"*lm-n/////////kk",
"e}/o/////////kpq",
"=5////1[2rcsktuv",
"-6///1w9ccxypzvA",
";>////90cgkBuvCD",
">E{_1F0cGtppHIDJ",
" K11LrcgMNqvADO "};
