/* XPM */
static char * menu_active_xpm[] = {
"16 16 99 2",
"  	c None",
". 	c #7D7E7D",
"+ 	c #7B7B7C",
"@ 	c #7A7A7A",
"# 	c #787877",
"$ 	c #757575",
"% 	c #737373",
"& 	c #717171",
"* 	c #70706F",
"= 	c #6E6E6E",
"- 	c #6B6B6B",
"; 	c #696969",
"> 	c #676768",
", 	c #656565",
"' 	c #636363",
") 	c #7B7C7B",
"! 	c #777778",
"~ 	c #757576",
"{ 	c #6F706F",
"] 	c #6E6D6D",
"^ 	c #6C6C6B",
"/ 	c #686767",
"( 	c #616061",
"_ 	c #5E5F5F",
": 	c #79797A",
"< 	c #757675",
"[ 	c #707070",
"} 	c #6D6E6D",
"| 	c #676767",
"1 	c #626363",
"2 	c #606161",
"3 	c #5F5F5E",
"4 	c #5C5C5D",
"5 	c #797A79",
"6 	c #777878",
"7 	c #FFFFFF",
"8 	c #616161",
"9 	c #5F5E5E",
"0 	c #5C5D5D",
"a 	c #5A5B5B",
"b 	c #777777",
"c 	c #5D5D5D",
"d 	c #5B5A5B",
"e 	c #585959",
"f 	c #6F6F6F",
"g 	c #6B6C6B",
"h 	c #6A696A",
"i 	c #5A5A5B",
"j 	c #595958",
"k 	c #575757",
"l 	c #6E6E6D",
"m 	c #676867",
"n 	c #616160",
"o 	c #5B5B5B",
"p 	c #585858",
"q 	c #555555",
"r 	c #6D6D6E",
"s 	c #595858",
"t 	c #535352",
"u 	c #6D6D6D",
"v 	c #69696A",
"w 	c #515151",
"x 	c #6C6B6C",
"y 	c #5E5E5F",
"z 	c #5A5A5A",
"A 	c #595959",
"B 	c #535353",
"C 	c #515051",
"D 	c #4E4F4E",
"E 	c #5C5C5C",
"F 	c #5B5A5A",
"G 	c #4E4E4F",
"H 	c #4D4C4C",
"I 	c #656566",
"J 	c #4F4F4F",
"K 	c #4C4C4D",
"L 	c #4A4A4A",
"M 	c #686768",
"N 	c #4F4F4E",
"O 	c #4B4A4B",
"P 	c #484948",
"Q 	c #5E5F5E",
"R 	c #4C4D4C",
"S 	c #4A4B4A",
"T 	c #484849",
"U 	c #464646",
"V 	c #5F5F5F",
"W 	c #555455",
"X 	c #505150",
"Y 	c #4E4F4F",
"Z 	c #4B4A4A",
"` 	c #494848",
" .	c #464746",
"..	c #444444",
"+.	c #5F5E5F",
"@.	c #515150",
"#.	c #4A4B4B",
"$.	c #484848",
"%.	c #464647",
"  . + @ # $ % & * = - ; > , '   ",
". ) @ ! ~ % & { ] ^ ; / , ' ( _ ",
"+ : ! < % & [ } ^ ; | , 1 2 3 4 ",
"5 6 $ % 7 7 7 7 7 7 7 7 8 9 0 a ",
"b < % & 7 7 7 7 7 7 7 7 3 c d e ",
"$ % & f } g h | , ' 2 9 c i j k ",
"% & [ l - ; m , ' n _ 0 o p k q ",
"& [ r - 7 7 7 7 7 7 7 7 s k q t ",
"[ u - v 7 7 7 7 7 7 7 7 k q t w ",
"= x v | , ' 8 y c z A k q B C D ",
"g ; | , ' 8 3 E F j k q B w G H ",
"v | I ' 7 7 7 7 7 7 7 7 w J K L ",
"M , ' ( 7 7 7 7 7 7 7 7 N H O P ",
", ' 8 Q c z p k q B w J R S T U ",
"' 8 V E a A k W B X Y K Z `  ...",
"  +.0 F p k q B @.J K #.$.%...  "};
