/* XPM */
static char * menu_inactive_xpm[] = {
"16 16 82 1",
" 	c None",
".	c #FFFFFF",
"+	c #FEFEFF",
"@	c #FEFEFE",
"#	c #FDFDFD",
"$	c #FCFDFC",
"%	c #FCFCFC",
"&	c #FCFBFB",
"*	c #FBFBFB",
"=	c #FBFAFA",
"-	c #FAFAF9",
";	c #F9F9FA",
">	c #F8F9F9",
",	c #F8F8F8",
"'	c #F8F7F7",
")	c #FEFFFF",
"!	c #FCFCFD",
"~	c #FBFBFC",
"{	c #FBFAFB",
"]	c #F9FAF9",
"^	c #F8F8F9",
"/	c #F7F7F7",
"(	c #F6F6F6",
"_	c #FEFFFE",
":	c #FAFBFB",
"<	c #FAFAFA",
"[	c #F9FAFA",
"}	c #F7F6F6",
"|	c #F6F6F5",
"1	c #FEFEFD",
"2	c #FDFDFC",
"3	c #808080",
"4	c #F5F6F5",
"5	c #F4F5F5",
"6	c #FBFCFB",
"7	c #F6F5F5",
"8	c #F5F5F5",
"9	c #F4F4F5",
"0	c #F9F9F9",
"a	c #F9F8F9",
"b	c #F5F6F6",
"c	c #F5F4F4",
"d	c #F4F4F4",
"e	c #FAF9F9",
"f	c #F7F7F6",
"g	c #F3F3F3",
"h	c #F3F3F4",
"i	c #F2F3F3",
"j	c #FAFBFA",
"k	c #F3F2F2",
"l	c #F8F9F8",
"m	c #F7F8F8",
"n	c #F7F6F7",
"o	c #F3F4F3",
"p	c #F3F3F2",
"q	c #F2F2F2",
"r	c #F1F1F1",
"s	c #F8F8F7",
"t	c #F7F7F8",
"u	c #F5F5F4",
"v	c #F4F5F4",
"w	c #F3F4F4",
"x	c #F3F2F3",
"y	c #F2F1F2",
"z	c #F0F1F1",
"A	c #F0F0F1",
"B	c #F1F2F1",
"C	c #F1F0F0",
"D	c #F0F0EF",
"E	c #F6F6F7",
"F	c #F5F5F6",
"G	c #F4F4F3",
"H	c #F2F2F3",
"I	c #F1F2F2",
"J	c #F1F0F1",
"K	c #F0F1F0",
"L	c #EFEFF0",
"M	c #F1F1F0",
"N	c #F0F0F0",
"O	c #EFEFEF",
"P	c #EFEFEE",
"Q	c #F4F3F3",
" .+@#$%&*=-;>,' ",
".)@#!%~{=-]^,//(",
"_@##%&:<[],,'}(|",
"1#2%33333333/}45",
"#!%633333333(789",
"#%*{<;0a,'}(b5cd",
"%*==e0a,'f(789dg",
"**<<333333338hgi",
"j<;033333333dggk",
"j[0lm/n(b8dogpqr",
"--^st}((uvwgxqrr",
"0^,s33333333qyzA",
"0m//33333333BrCD",
",/(EF85GggHIJKDL",
"tn((8uGoxqrMKNOP",
" Eb89GQiqBrKNLO "};
