/* XPM */
static char * shade_active_xpm[] = {
"16 16 101 2",
"  	c None",
". 	c #7D7D7D",
"+ 	c #7B7B7B",
"@ 	c #797979",
"# 	c #777777",
"$ 	c #747575",
"% 	c #737373",
"& 	c #717171",
"* 	c #6F6E6F",
"= 	c #6D6C6D",
"- 	c #6B6A6A",
"; 	c #686968",
"> 	c #676666",
", 	c #656565",
"' 	c #636363",
") 	c #7A7A7B",
"! 	c #787878",
"~ 	c #777776",
"{ 	c #757575",
"] 	c #717271",
"^ 	c #6F6F6F",
"/ 	c #6D6D6D",
"( 	c #6B6B6B",
"_ 	c #686869",
": 	c #676767",
"< 	c #616161",
"[ 	c #5E5F5F",
"} 	c #7A7B7B",
"| 	c #757574",
"1 	c #747373",
"2 	c #686868",
"3 	c #666666",
"4 	c #636263",
"5 	c #616061",
"6 	c #5F5F5E",
"7 	c #5C5D5C",
"8 	c #797878",
"9 	c #737374",
"0 	c #FFFFFF",
"a 	c #5D5D5D",
"b 	c #5A5A5B",
"c 	c #747474",
"d 	c #5F5F5F",
"e 	c #5C5D5D",
"f 	c #5B5A5A",
"g 	c #595959",
"h 	c #6C6D6D",
"i 	c #696869",
"j 	c #666566",
"k 	c #5B5A5B",
"l 	c #575757",
"m 	c #686969",
"n 	c #656566",
"o 	c #626363",
"p 	c #5A5A5A",
"q 	c #555555",
"r 	c #666767",
"s 	c #5D5D5C",
"t 	c #535253",
"u 	c #5F5E5F",
"v 	c #5A5B5A",
"w 	c #595A59",
"x 	c #535353",
"y 	c #515150",
"z 	c #6A6A6B",
"A 	c #5D5C5D",
"B 	c #5A5959",
"C 	c #545555",
"D 	c #505150",
"E 	c #4F4F4E",
"F 	c #6A6B6B",
"G 	c #525253",
"H 	c #515051",
"I 	c #4D4C4C",
"J 	c #666766",
"K 	c #606160",
"L 	c #505151",
"M 	c #4E4E4E",
"N 	c #4B4B4B",
"O 	c #676766",
"P 	c #5D5C5C",
"Q 	c #515151",
"R 	c #4E4F4F",
"S 	c #4C4C4D",
"T 	c #494949",
"U 	c #5F5E5E",
"V 	c #505050",
"W 	c #4F4F4F",
"X 	c #4C4C4C",
"Y 	c #474747",
"Z 	c #5B5B5B",
"` 	c #525353",
" .	c #4D4D4C",
"..	c #464747",
"+.	c #444545",
"@.	c #5E5E5F",
"#.	c #5C5C5D",
"$.	c #59595A",
"%.	c #555554",
"&.	c #474647",
"*.	c #454544",
"  . + @ # $ % & * = - ; > , '   ",
". ) ! ~ { % ] ^ / ( _ : , ' < [ ",
"} @ ~ | 1 & ^ / ( 2 3 , 4 5 6 7 ",
"8 # $ 9 0 0 0 0 0 0 0 0 < 6 a b ",
"# c % & 0 0 0 0 0 0 0 0 d e f g ",
"$ 1 & ^ h - i 3 j ' < d 7 k g l ",
"% & ^ / ( m : n o 5 d a p g l q ",
"& ^ / ( i r , ' < d s p g l q t ",
"^ / ( i 3 , ' < u s v w l q x y ",
"= z i 3 n ' < d A v B l C t D E ",
"F m > , ' < 6 A b g l q G H E I ",
"; J , ' K 6 e k g l q x L M I N ",
"O , ' 5 d P f g l q x Q R S N T ",
", ' < U e v g l q x V W X N T Y ",
"' < [ A Z g l q ` Q R  .N T ..+.",
"  @.#.b $.l %.t Q M X N T &.*.  "};
