/* XPM */
static char * shade_inactive_xpm[] = {
"16 16 77 1",
" 	c None",
".	c #FFFEFE",
"+	c #FEFEFE",
"@	c #FDFDFD",
"#	c #FDFCFD",
"$	c #FDFCFC",
"%	c #FCFCFC",
"&	c #FBFBFB",
"*	c #FBFAFB",
"=	c #FAFAFA",
"-	c #F9F9FA",
";	c #F9F8F9",
">	c #F8F8F8",
",	c #F7F7F7",
"'	c #FFFFFF",
")	c #FCFCFD",
"!	c #FBFCFC",
"~	c #FAFAFB",
"{	c #F9F9F9",
"]	c #F8F7F8",
"^	c #F6F6F6",
"/	c #FEFDFD",
"(	c #FCFDFD",
"_	c #F9FAF9",
":	c #F6F7F7",
"<	c #F6F5F5",
"[	c #FCFCFB",
"}	c #808080",
"|	c #F7F6F7",
"1	c #F5F6F5",
"2	c #F5F4F5",
"3	c #FDFDFC",
"4	c #FCFBFC",
"5	c #FBFBFC",
"6	c #F5F5F5",
"7	c #F5F4F4",
"8	c #FBFBFA",
"9	c #F8F8F9",
"0	c #F7F7F8",
"a	c #F6F6F7",
"b	c #F4F5F4",
"c	c #F4F4F3",
"d	c #FBFAFA",
"e	c #F7F8F7",
"f	c #F7F7F6",
"g	c #F6F5F6",
"h	c #F5F5F4",
"i	c #F3F3F3",
"j	c #F8F9F9",
"k	c #F8F8F7",
"l	c #F4F4F4",
"m	c #F2F3F3",
"n	c #F4F5F5",
"o	c #F4F4F5",
"p	c #F4F3F4",
"q	c #F3F3F2",
"r	c #F3F2F2",
"s	c #FAF9F9",
"t	c #F7F8F8",
"u	c #F4F3F3",
"v	c #F2F2F2",
"w	c #F1F2F1",
"x	c #F6F7F6",
"y	c #F3F4F3",
"z	c #F2F1F2",
"A	c #F1F1F1",
"B	c #F8F9F8",
"C	c #F1F1F2",
"D	c #F0F1F0",
"E	c #F2F2F3",
"F	c #F1F0F1",
"G	c #F0F0F0",
"H	c #EFEFEF",
"I	c #EFEFF0",
"J	c #EEEEEE",
"K	c #F1F2F2",
"L	c #EFF0F0",
" .+@#$%&*=-;>>, ",
"'+@)%!&~={{>],^^",
"+/(%!*&=_{>>:,^<",
"@@%[}}}}}}}}|^12",
"3#45}}}}}}}}^167",
")[58=_{9]0a^66bc",
"%&d={{>>ef^ghbci",
"&8=-j9k,a^16llcm",
"*=_j>>e:^<nopiqr",
"=s>9tk,^^67pumvw",
"{{;t,x^12nlyivzA",
"{B>,,^<hnlimrCAD",
";>ef^167llEvCFGG",
">,,^66blcqvwAGGH",
"0x^g67limECAGGIJ",
" ^<6hliivKAALLH "};
