/* XPM */
static char * stick_inactive_xpm[] = {
"16 16 77 1",
" 	c None",
".	c #FFFFFE",
"+	c #FEFEFF",
"@	c #FEFDFD",
"#	c #FDFDFD",
"$	c #FCFCFD",
"%	c #FCFCFB",
"&	c #FBFBFC",
"*	c #FAFBFB",
"=	c #FAFAFA",
"-	c #FAFAF9",
";	c #F9F9F9",
">	c #F8F8F9",
",	c #F8F8F8",
"'	c #F8F7F7",
")	c #FEFFFF",
"!	c #FEFEFE",
"~	c #FDFEFE",
"{	c #FCFDFD",
"]	c #FBFCFC",
"^	c #FCFBFB",
"/	c #FBFBFB",
"(	c #FAF9FA",
"_	c #F8F9F8",
":	c #F7F7F7",
"<	c #F7F7F6",
"[	c #F6F6F6",
"}	c #FFFEFE",
"|	c #808080",
"1	c #F9F9FA",
"2	c #F6F5F5",
"3	c #FAFAFB",
"4	c #F5F5F5",
"5	c #FDFCFC",
"6	c #F9FAFA",
"7	c #F8F9F9",
"8	c #F5F5F4",
"9	c #FCFCFC",
"0	c #F9F9F8",
"a	c #F4F4F4",
"b	c #FBFCFB",
"c	c #F9F8F8",
"d	c #F7F7F8",
"e	c #F6F6F7",
"f	c #F5F6F5",
"g	c #F5F4F4",
"h	c #F3F3F4",
"i	c #F3F3F3",
"j	c #F7F8F7",
"k	c #F4F4F5",
"l	c #FBFAFB",
"m	c #FAFBFA",
"n	c #F4F4F3",
"o	c #F3F3F2",
"p	c #F2F2F2",
"q	c #F5F5F6",
"r	c #F4F5F4",
"s	c #F4F3F3",
"t	c #F1F1F1",
"u	c #F6F6F5",
"v	c #F2F1F1",
"w	c #F0F0F0",
"x	c #F5F4F5",
"y	c #F4F3F4",
"z	c #F0EFF0",
"A	c #F2F3F2",
"B	c #F0EFEF",
"C	c #EFF0EF",
"D	c #F6F7F6",
"E	c #F6F5F6",
"F	c #F2F3F3",
"G	c #F1F0F0",
"H	c #F0F0F1",
"I	c #EFEEEE",
"J	c #EFF0F0",
"K	c #EFEFF0",
"L	c #EFEEEF",
" .+@#$%&*=-;>,' ",
")!~#{]^/=(;_,:<[",
"}~||||/=1;||||[2",
"~#||||31;,||||44",
"#5||||6;7,||||48",
"59||||;0,:||||8a",
"9b/=1;c,de[f4ghi",
"//=1;_,j:[24kaii",
"lm(;7,d[[44gniop",
"=-;c,::[q4rssppt",
"67||||[u4r||||vw",
";>||||24aa||||tw",
",,||||xxyi||||wz",
",d||||xaiA||||BC",
":DEf4raiFAvGHwCI",
" [24rahFpttwJKL "};
