/* XPM */
static char * stick_active_xpm[] = {
"16 16 100 2",
"  	c None",
". 	c #7D7E7E",
"+ 	c #7C7C7C",
"@ 	c #7A7A7A",
"# 	c #787877",
"$ 	c #767576",
"% 	c #737373",
"& 	c #717171",
"* 	c #70706F",
"= 	c #6D6D6E",
"- 	c #6B6B6B",
"; 	c #696969",
"> 	c #676767",
", 	c #656666",
"' 	c #636363",
") 	c #7E7E7E",
"! 	c #787878",
"~ 	c #767575",
"{ 	c #747473",
"] 	c #706F70",
"^ 	c #6E6E6D",
"/ 	c #676766",
"( 	c #666666",
"_ 	c #636364",
": 	c #616161",
"< 	c #5E5F5F",
"[ 	c #FFFFFF",
"} 	c #6F7070",
"| 	c #6D6D6D",
"1 	c #6B6B6C",
"2 	c #696968",
"3 	c #5F5F5F",
"4 	c #5C5D5D",
"5 	c #6D6E6D",
"6 	c #5C5D5C",
"7 	c #5B5B5A",
"8 	c #757676",
"9 	c #6C6B6B",
"0 	c #656665",
"a 	c #5B5B5B",
"b 	c #585858",
"c 	c #757576",
"d 	c #737473",
"e 	c #696869",
"f 	c #636463",
"g 	c #595858",
"h 	c #575657",
"i 	c #6E6E6E",
"j 	c #686969",
"k 	c #666767",
"l 	c #656565",
"m 	c #646363",
"n 	c #5F5F5E",
"o 	c #5C5C5C",
"p 	c #595959",
"q 	c #565757",
"r 	c #545454",
"s 	c #666565",
"t 	c #5E5E5F",
"u 	c #565656",
"v 	c #525252",
"w 	c #6F6F70",
"x 	c #676667",
"y 	c #5C5C5D",
"z 	c #575757",
"A 	c #555454",
"B 	c #505151",
"C 	c #656566",
"D 	c #5F5E5F",
"E 	c #5D5D5C",
"F 	c #545554",
"G 	c #535252",
"H 	c #515151",
"I 	c #4F4F4E",
"J 	c #6B6C6B",
"K 	c #4E4E4F",
"L 	c #4C4C4C",
"M 	c #595859",
"N 	c #565657",
"O 	c #4C4D4D",
"P 	c #4A4A4A",
"Q 	c #666667",
"R 	c #484848",
"S 	c #575656",
"T 	c #474847",
"U 	c #464647",
"V 	c #616160",
"W 	c #575756",
"X 	c #525353",
"Y 	c #4E4F4E",
"Z 	c #4C4C4D",
"` 	c #4B4A4A",
" .	c #484748",
"..	c #464746",
"+.	c #444445",
"@.	c #5D5C5D",
"#.	c #545555",
"$.	c #4F4E4F",
"%.	c #464646",
"&.	c #444444",
"  . + @ # $ % & * = - ; > , '   ",
") + @ ! ~ { & ] ^ - ; / ( _ : < ",
"+ @ [ [ [ [ } | 1 2 [ [ [ [ 3 4 ",
"@ ! [ [ [ [ 5 - ; / [ [ [ [ 6 7 ",
"! 8 [ [ [ [ 9 ; / 0 [ [ [ [ a b ",
"c d [ [ [ [ e > 0 f [ [ [ [ g h ",
"% & ] i - j k l m : n o a p q r ",
"& } i - ; > s ' : t 4 a p u r v ",
"w = 1 ; x , _ : < y a p z A v B ",
"= - ; / C ' : D E a p z F G H I ",
"J ; [ [ [ [ < 6 a p [ [ [ [ K L ",
"2 / [ [ [ [ y a M N [ [ [ [ O P ",
"Q 0 [ [ [ [ a b h F [ [ [ [ P R ",
"s ' [ [ [ [ p S F v [ [ [ [ T U ",
"' V t 4 a p W r X B Y Z `  ...+.",
"  < @.a p S #.G H $.L P  .%.&.  "};
