/* XPM */
static char * top_right_inactive_xpm[] = {
"3 28 2 1",
" 	c None",
".	c #808080",
".  ",
".. ",
"...",
"...",
"...",
"...",
"...",
"...",
"...",
"...",
"...",
"...",
"...",
"...",
"...",
"...",
"...",
"...",
"...",
"...",
"...",
"...",
"...",
"...",
"...",
"...",
"...",
"..."};
