#define max_width 10
#define max_height 10
static unsigned char max_bits[] = {
   0xc0, 0x03, 0x80, 0x03, 0xc0, 0x03, 0xfe, 0x02, 0x7f, 0x00, 0x63, 0x00,
   0x63, 0x00, 0x63, 0x00, 0x7f, 0x00, 0x3e, 0x00 };
