#define max_toggled_width 10
#define max_toggled_height 10
static unsigned char max_toggled_bits[] = {
   0xf0, 0x01, 0xf8, 0x03, 0x18, 0x03, 0x18, 0x03, 0x18, 0x03, 0xf8, 0x03,
   0xfd, 0x01, 0x0f, 0x00, 0x07, 0x00, 0x0f, 0x00 };
